<svg width="34" height="34" viewBox="0 0 34 34" fill="none" xmlns="http://www.w3.org/2000/svg">
<circle cx="17" cy="17" r="17" fill="#0D0234"/>
<path d="M13.8447 11.8691C14.7908 11.2535 15.837 10.9412 16.9833 10.9412C18.1174 10.9381 19.1636 11.2505 20.1249 11.8782L22.1384 9.86464C20.5737 8.66379 18.8543 8.06033 16.9833 8.06337C15.1032 8.0664 13.3868 8.66379 11.8312 9.86161L13.8447 11.8691Z" fill="white"/>
<path d="M11.8614 20.1416C11.2215 19.1712 10.9031 18.122 10.9062 16.997C10.9092 15.8537 11.2246 14.8075 11.8553 13.8554L9.84784 11.8448C8.66822 13.3823 8.0769 15.0986 8.07386 16.997C8.07083 18.8771 8.66519 20.5934 9.85391 22.1521L11.8614 20.1416Z" fill="white"/>
<path d="M20.1427 22.1399C19.1875 22.7828 18.1413 23.1103 17.0041 23.1194C15.8488 23.1285 14.7905 22.801 13.8292 22.146L11.8278 24.1474C13.3834 25.3573 15.1119 25.9547 17.0163 25.9395C18.8994 25.9244 20.6097 25.327 22.1472 24.1443L20.1427 22.1399Z" fill="white"/>
<path d="M22.1233 13.8523C22.7692 14.8257 23.0845 15.8931 23.0724 17.0545C23.0603 18.1735 22.7419 19.2045 22.1202 20.1476L24.1307 22.1581C25.3134 20.6176 25.9138 18.9074 25.9289 17.0303C25.9441 15.1259 25.3467 13.3974 24.1368 11.8418L22.1233 13.8523Z" fill="white"/>
<path d="M24.0979 24.2929C24.0676 24.2625 24.0524 24.2261 24.0524 24.1867C24.0524 24.1473 24.0676 24.1109 24.0979 24.0806C24.1555 24.023 24.2495 24.023 24.3102 24.0806C24.3405 24.1109 24.3557 24.1473 24.3557 24.1867C24.3557 24.2261 24.3405 24.2625 24.3102 24.2929C24.2799 24.3232 24.2435 24.3353 24.204 24.3353C24.1646 24.3353 24.1282 24.3202 24.0979 24.2929ZM23.6734 23.8683C23.643 23.838 23.6309 23.8016 23.6309 23.7622C23.6309 23.7228 23.6461 23.6864 23.6734 23.656C23.731 23.5984 23.828 23.5984 23.8856 23.656C23.916 23.6864 23.9281 23.7228 23.9281 23.7622C23.9281 23.8016 23.9129 23.838 23.8856 23.8683C23.8553 23.8986 23.8189 23.9108 23.7795 23.9108C23.7431 23.9108 23.7037 23.8986 23.6734 23.8683ZM23.2519 23.4438C23.2215 23.4135 23.2064 23.3771 23.2064 23.3376C23.2064 23.2982 23.2215 23.2618 23.2519 23.2315C23.3095 23.1739 23.4065 23.1739 23.4641 23.2315C23.4945 23.2618 23.5066 23.2982 23.5066 23.3376C23.5066 23.3771 23.4914 23.4135 23.4641 23.4438C23.4338 23.4741 23.3974 23.4893 23.358 23.4893C23.3186 23.4893 23.2792 23.4741 23.2519 23.4438ZM22.8273 23.0192C22.797 22.9889 22.7849 22.9525 22.7849 22.9131C22.7849 22.8737 22.8 22.8373 22.8273 22.807C22.8849 22.7494 22.982 22.7494 23.0396 22.807C23.0699 22.8373 23.082 22.8737 23.082 22.9131C23.082 22.9525 23.0669 22.9889 23.0396 23.0192C23.0093 23.0496 22.9729 23.0647 22.9335 23.0647C22.894 23.0647 22.8576 23.0496 22.8273 23.0192ZM22.4028 22.5977C22.3725 22.5674 22.3573 22.531 22.3573 22.4916C22.3573 22.4522 22.3725 22.4158 22.4028 22.3855C22.4604 22.3278 22.5544 22.3278 22.6151 22.3855C22.6454 22.4158 22.6575 22.4522 22.6575 22.4916C22.6575 22.531 22.6423 22.5674 22.6151 22.5977C22.5847 22.6281 22.5483 22.6402 22.5089 22.6402C22.4725 22.6402 22.4331 22.625 22.4028 22.5977ZM21.9813 22.1732C21.9509 22.1429 21.9358 22.1065 21.9358 22.0671C21.9358 22.0276 21.9509 21.9912 21.9813 21.9609C22.0389 21.9033 22.1329 21.9033 22.1935 21.9609C22.2239 21.9912 22.239 22.0276 22.239 22.0671C22.239 22.1065 22.2239 22.1429 22.1935 22.1732C22.1632 22.2035 22.1268 22.2156 22.0874 22.2156C22.048 22.2156 22.0086 22.2035 21.9813 22.1732ZM21.5567 21.7486C21.5264 21.7183 21.5143 21.6819 21.5143 21.6425C21.5143 21.6031 21.5294 21.5667 21.5567 21.5364C21.6143 21.4788 21.7114 21.4788 21.769 21.5364C21.7993 21.5667 21.8145 21.6031 21.8145 21.6425C21.8145 21.6819 21.7993 21.7183 21.769 21.7486C21.7387 21.779 21.7023 21.7941 21.6629 21.7941C21.6234 21.7941 21.5871 21.779 21.5567 21.7486ZM21.1322 21.3271C21.1019 21.2968 21.0867 21.2604 21.0867 21.221C21.0867 21.1816 21.1019 21.1452 21.1322 21.1149C21.1898 21.0573 21.2868 21.0573 21.3445 21.1149C21.3748 21.1452 21.3869 21.1816 21.3869 21.221C21.3869 21.2604 21.3718 21.2968 21.3445 21.3271C21.3141 21.3575 21.2777 21.3696 21.2383 21.3696C21.2019 21.3696 21.1625 21.3544 21.1322 21.3271ZM20.7077 20.9026C20.6773 20.8723 20.6622 20.8359 20.6622 20.7965C20.6622 20.757 20.6773 20.7207 20.7077 20.6903C20.7653 20.6327 20.8623 20.6327 20.9199 20.6903C20.9502 20.7207 20.9654 20.757 20.9654 20.7965C20.9654 20.8359 20.9502 20.8723 20.9199 20.9026C20.8896 20.9329 20.8532 20.9481 20.8138 20.9481C20.7774 20.9451 20.738 20.9299 20.7077 20.9026ZM20.2861 20.4781C20.2558 20.4477 20.2407 20.4113 20.2407 20.3719C20.2407 20.3325 20.2558 20.2961 20.2861 20.2658C20.3438 20.2082 20.4378 20.2082 20.4984 20.2658C20.5287 20.2961 20.5439 20.3325 20.5439 20.3719C20.5439 20.4113 20.5287 20.4477 20.4984 20.4781C20.4681 20.5084 20.4317 20.5235 20.3923 20.5235C20.3529 20.5235 20.3134 20.5084 20.2861 20.4781ZM19.8616 20.0566C19.8313 20.0262 19.8161 19.9898 19.8161 19.9504C19.8161 19.911 19.8313 19.8746 19.8616 19.8443C19.9192 19.7867 20.0132 19.7867 20.0739 19.8443C20.1042 19.8746 20.1194 19.911 20.1194 19.9504C20.1194 19.9898 20.1042 20.0262 20.0739 20.0566C20.0435 20.0869 20.0072 20.099 19.9677 20.099C19.9283 20.099 19.8919 20.0838 19.8616 20.0566ZM19.4371 19.632C19.4067 19.6017 19.3946 19.5653 19.3946 19.5259C19.3946 19.4865 19.4098 19.4501 19.4371 19.4197C19.4947 19.3621 19.5917 19.3621 19.6493 19.4197C19.6797 19.4501 19.6948 19.4865 19.6948 19.5259C19.6948 19.5653 19.6797 19.6017 19.6493 19.632C19.619 19.6623 19.5826 19.6775 19.5432 19.6775C19.5068 19.6745 19.4674 19.6593 19.4371 19.632ZM19.0156 19.2075C18.9852 19.1771 18.9731 19.1408 18.9731 19.1013C18.9731 19.0619 18.9883 19.0255 19.0156 18.9952C19.0732 18.9376 19.1702 18.9376 19.2278 18.9952C19.2581 19.0255 19.2733 19.0619 19.2733 19.1013C19.2733 19.1408 19.2581 19.1771 19.2278 19.2075C19.1975 19.2378 19.1611 19.253 19.1217 19.253C19.0823 19.2499 19.0428 19.2378 19.0156 19.2075ZM18.591 18.7829C18.5607 18.7526 18.5455 18.7162 18.5455 18.6768C18.5455 18.6374 18.5607 18.601 18.591 18.5707C18.6486 18.513 18.7457 18.513 18.8033 18.5707C18.8336 18.601 18.8457 18.6374 18.8457 18.6768C18.8457 18.7162 18.8306 18.7526 18.8033 18.7829C18.773 18.8133 18.7366 18.8284 18.6971 18.8284C18.6577 18.8284 18.6183 18.8133 18.591 18.7829ZM18.1665 18.3614C18.1361 18.3311 18.121 18.2947 18.121 18.2553C18.121 18.2159 18.1361 18.1795 18.1665 18.1492C18.2241 18.0915 18.3211 18.0915 18.3787 18.1492C18.4091 18.1795 18.4242 18.2159 18.4242 18.2553C18.4242 18.2947 18.4091 18.3311 18.3787 18.3614C18.3484 18.3917 18.312 18.4069 18.2726 18.4069C18.2332 18.4039 18.1968 18.3887 18.1665 18.3614ZM17.745 17.9369C17.7146 17.9066 17.6995 17.8702 17.6995 17.8307C17.6995 17.7913 17.7146 17.7549 17.745 17.7246C17.8026 17.667 17.8966 17.667 17.9572 17.7246C17.9876 17.7549 18.0027 17.7913 18.0027 17.8307C18.0027 17.8702 17.9876 17.9066 17.9572 17.9369C17.9269 17.9672 17.8905 17.9793 17.8511 17.9793C17.8117 17.9793 17.7723 17.9642 17.745 17.9369ZM17.3204 17.5123C17.2901 17.482 17.278 17.4456 17.278 17.4062C17.278 17.3668 17.2931 17.3304 17.3204 17.3001C17.378 17.2425 17.4751 17.2425 17.5327 17.3001C17.563 17.3304 17.5782 17.3668 17.5782 17.4062C17.5782 17.4456 17.563 17.482 17.5327 17.5123C17.5024 17.5427 17.466 17.5548 17.4266 17.5548C17.3871 17.5578 17.3477 17.5427 17.3204 17.5123ZM16.8959 17.0878C16.8656 17.0575 16.8534 17.0211 16.8534 16.9817C16.8534 16.9422 16.8686 16.9059 16.8959 16.8755C16.9535 16.8179 17.0505 16.8179 17.1081 16.8755C17.1385 16.9059 17.1506 16.9422 17.1506 16.9817C17.1506 17.0211 17.1354 17.0575 17.1081 17.0878C17.0778 17.1181 17.0414 17.1333 17.002 17.1333C16.9626 17.1333 16.9262 17.1181 16.8959 17.0878ZM16.4713 16.6663C16.441 16.636 16.4258 16.5996 16.4258 16.5602C16.4258 16.5207 16.441 16.4843 16.4713 16.454C16.529 16.3964 16.626 16.3964 16.6836 16.454C16.7139 16.4843 16.7261 16.5207 16.7261 16.5602C16.7261 16.5996 16.7109 16.636 16.6836 16.6663C16.6533 16.6966 16.6169 16.7118 16.5775 16.7118C16.5411 16.7087 16.5017 16.6936 16.4713 16.6663ZM16.0498 16.2418C16.0195 16.2114 16.0043 16.175 16.0043 16.1356C16.0043 16.0962 16.0195 16.0598 16.0498 16.0295C16.1074 15.9719 16.2045 15.9719 16.2621 16.0295C16.2924 16.0598 16.3046 16.0962 16.3046 16.1356C16.3046 16.175 16.2894 16.2114 16.2621 16.2418C16.2318 16.2721 16.1954 16.2842 16.156 16.2842C16.1165 16.2842 16.0771 16.2721 16.0498 16.2418ZM15.6253 15.8172C15.595 15.7869 15.5798 15.7505 15.5798 15.7111C15.5798 15.6717 15.595 15.6353 15.6253 15.6049C15.6829 15.5473 15.7769 15.5473 15.8376 15.6049C15.8679 15.6353 15.883 15.6717 15.883 15.7111C15.883 15.7505 15.8679 15.7869 15.8376 15.8172C15.8072 15.8475 15.7708 15.8627 15.7314 15.8627C15.692 15.8627 15.6526 15.8475 15.6253 15.8172ZM15.2007 15.3957C15.1704 15.3654 15.1583 15.329 15.1583 15.2896C15.1583 15.2501 15.1735 15.2138 15.2007 15.1834C15.2584 15.1258 15.3554 15.1258 15.413 15.1834C15.4433 15.2138 15.4585 15.2501 15.4585 15.2896C15.4585 15.329 15.4433 15.3654 15.413 15.3957C15.3827 15.426 15.3463 15.4382 15.3069 15.4382C15.2675 15.4382 15.2311 15.423 15.2007 15.3957ZM14.7762 14.9712C14.7459 14.9408 14.7307 14.9044 14.7307 14.865C14.7307 14.8256 14.7459 14.7892 14.7762 14.7589C14.8338 14.7013 14.9278 14.7013 14.9885 14.7589C15.0188 14.7892 15.0309 14.8256 15.0309 14.865C15.0309 14.9044 15.0158 14.9408 14.9885 14.9712C14.9582 15.0015 14.9218 15.0136 14.8823 15.0136C14.846 15.0136 14.8065 14.9985 14.7762 14.9712ZM14.3547 14.5466C14.3244 14.5163 14.3122 14.4799 14.3122 14.4405C14.3122 14.4011 14.3274 14.3647 14.3547 14.3344C14.4123 14.2767 14.5094 14.2767 14.567 14.3344C14.5973 14.3647 14.6125 14.4011 14.6125 14.4405C14.6125 14.4799 14.5973 14.5163 14.567 14.5466C14.5366 14.5769 14.5003 14.5921 14.4608 14.5921C14.4214 14.5921 14.382 14.5769 14.3547 14.5466ZM13.9302 14.1221C13.8998 14.0918 13.8877 14.0554 13.8877 14.0159C13.8877 13.9765 13.9029 13.9401 13.9302 13.9098C13.9878 13.8522 14.0848 13.8522 14.1424 13.9098C14.1728 13.9401 14.1849 13.9765 14.1849 14.0159C14.1849 14.0554 14.1697 14.0918 14.1424 14.1221C14.1121 14.1524 14.0757 14.1676 14.0363 14.1676C13.9969 14.1676 13.9605 14.1524 13.9302 14.1221ZM13.5056 13.7006C13.4753 13.6702 13.4601 13.6339 13.4601 13.5944C13.4601 13.555 13.4753 13.5186 13.5056 13.4883C13.5632 13.4307 13.6603 13.4307 13.7179 13.4883C13.7482 13.5186 13.7603 13.555 13.7603 13.5944C13.7603 13.6339 13.7452 13.6702 13.7179 13.7006C13.6876 13.7309 13.6512 13.743 13.6117 13.743C13.5754 13.743 13.5359 13.7279 13.5056 13.7006ZM13.0841 13.276C13.0538 13.2457 13.0417 13.2093 13.0417 13.1699C13.0417 13.1305 13.0568 13.0941 13.0841 13.0638C13.1417 13.0061 13.2388 13.0061 13.2964 13.0638C13.3267 13.0941 13.3419 13.1305 13.3419 13.1699C13.3419 13.2093 13.3267 13.2457 13.2964 13.276C13.2661 13.3064 13.2297 13.3185 13.1902 13.3185C13.1508 13.3185 13.1114 13.3064 13.0841 13.276ZM12.6596 12.8515C12.6292 12.8212 12.6141 12.7848 12.6141 12.7454C12.6141 12.7059 12.6292 12.6695 12.6596 12.6392C12.7172 12.5816 12.8112 12.5816 12.8718 12.6392C12.9022 12.6695 12.9143 12.7059 12.9143 12.7454C12.9143 12.7848 12.8991 12.8212 12.8718 12.8515C12.8415 12.8818 12.8051 12.897 12.7657 12.897C12.7263 12.897 12.6899 12.8818 12.6596 12.8515ZM12.235 12.427C12.2047 12.3966 12.1926 12.3602 12.1926 12.3208C12.1926 12.2814 12.2077 12.245 12.235 12.2147C12.2926 12.1571 12.3897 12.1571 12.4473 12.2147C12.4776 12.245 12.4928 12.2814 12.4928 12.3208C12.4928 12.3602 12.4776 12.3966 12.4473 12.427C12.417 12.4573 12.3806 12.4694 12.3412 12.4694C12.3017 12.4724 12.2653 12.4573 12.235 12.427ZM11.8105 12.0054C11.7802 11.9751 11.765 11.9387 11.765 11.8993C11.765 11.8599 11.7802 11.8235 11.8105 11.7932C11.8681 11.7356 11.9651 11.7356 12.0228 11.7932C12.0531 11.8235 12.0652 11.8599 12.0652 11.8993C12.0652 11.9387 12.05 11.9751 12.0228 12.0054C11.9924 12.0358 11.956 12.0509 11.9166 12.0509C11.8802 12.0479 11.8408 12.0327 11.8105 12.0054ZM11.389 11.5809C11.3586 11.5506 11.3465 11.5142 11.3465 11.4748C11.3465 11.4353 11.3617 11.399 11.389 11.3686C11.4466 11.311 11.5436 11.311 11.6012 11.3686C11.6316 11.399 11.6467 11.4353 11.6467 11.4748C11.6467 11.5142 11.6316 11.5506 11.6012 11.5809C11.5709 11.6112 11.5345 11.6234 11.4951 11.6234C11.4557 11.6264 11.4163 11.6112 11.389 11.5809ZM10.9644 11.1564C10.9341 11.126 10.9189 11.0896 10.9189 11.0502C10.9189 11.0108 10.9341 10.9744 10.9644 10.9441C11.022 10.8865 11.1161 10.8865 11.1767 10.9441C11.207 10.9744 11.2192 11.0108 11.2192 11.0502C11.2192 11.0896 11.204 11.126 11.1767 11.1564C11.1464 11.1867 11.11 11.2018 11.0706 11.2018C11.0311 11.2018 10.9948 11.1867 10.9644 11.1564Z" fill="white"/>
<path d="M9.6937 24.293C9.66337 24.2626 9.65125 24.2263 9.65125 24.1868C9.65125 24.1474 9.66641 24.111 9.6937 24.0807C9.75132 24.0231 9.84835 24.0231 9.90597 24.0807C9.93629 24.111 9.95146 24.1474 9.95146 24.1868C9.95146 24.2263 9.93629 24.2626 9.90597 24.293C9.87564 24.3233 9.83926 24.3354 9.79983 24.3354C9.76041 24.3354 9.72099 24.3203 9.6937 24.293ZM10.1182 23.8684C10.0879 23.8381 10.0728 23.8017 10.0728 23.7623C10.0728 23.7229 10.0879 23.6865 10.1182 23.6562C10.1759 23.5985 10.2729 23.5985 10.3305 23.6562C10.3608 23.6865 10.373 23.7229 10.373 23.7623C10.373 23.8017 10.3578 23.8381 10.3305 23.8684C10.3002 23.8988 10.2638 23.9109 10.2244 23.9109C10.185 23.9109 10.1455 23.8988 10.1182 23.8684ZM10.5397 23.4439C10.5094 23.4136 10.4973 23.3772 10.4973 23.3378C10.4973 23.2983 10.5125 23.2619 10.5397 23.2316C10.5974 23.174 10.6944 23.174 10.752 23.2316C10.7823 23.2619 10.7945 23.2983 10.7945 23.3378C10.7945 23.3772 10.7793 23.4136 10.752 23.4439C10.7217 23.4742 10.6853 23.4894 10.6459 23.4894C10.6095 23.4894 10.5701 23.4742 10.5397 23.4439ZM10.9643 23.0193C10.934 22.989 10.9218 22.9526 10.9218 22.9132C10.9218 22.8738 10.937 22.8374 10.9643 22.8071C11.0219 22.7495 11.1189 22.7495 11.1766 22.8071C11.2069 22.8374 11.222 22.8738 11.222 22.9132C11.222 22.9526 11.2069 22.989 11.1766 23.0193C11.1462 23.0497 11.1098 23.0648 11.0704 23.0648C11.031 23.0648 10.9946 23.0497 10.9643 23.0193ZM11.3888 22.5978C11.3585 22.5675 11.3433 22.5311 11.3433 22.4917C11.3433 22.4523 11.3585 22.4159 11.3888 22.3856C11.4464 22.3279 11.5404 22.3279 11.6011 22.3856C11.6314 22.4159 11.6466 22.4523 11.6466 22.4917C11.6466 22.5311 11.6314 22.5675 11.6011 22.5978C11.5708 22.6282 11.5344 22.6403 11.495 22.6403C11.4555 22.6403 11.4161 22.6251 11.3888 22.5978ZM11.8103 22.1733C11.78 22.143 11.7679 22.1066 11.7679 22.0672C11.7679 22.0277 11.783 21.9913 11.8103 21.961C11.8679 21.9034 11.965 21.9034 12.0226 21.961C12.0529 21.9913 12.0681 22.0277 12.0681 22.0672C12.0681 22.1066 12.0529 22.143 12.0226 22.1733C11.9923 22.2036 11.9559 22.2157 11.9165 22.2157C11.8801 22.2157 11.8407 22.2036 11.8103 22.1733ZM12.2349 21.7488C12.2045 21.7184 12.1894 21.682 12.1894 21.6426C12.1894 21.6032 12.2045 21.5668 12.2349 21.5365C12.2925 21.4789 12.3895 21.4789 12.4471 21.5365C12.4775 21.5668 12.4896 21.6032 12.4896 21.6426C12.4896 21.682 12.4744 21.7184 12.4471 21.7488C12.4168 21.7791 12.3804 21.7942 12.341 21.7942C12.3016 21.7942 12.2652 21.7791 12.2349 21.7488ZM12.6594 21.3272C12.6291 21.2969 12.6139 21.2605 12.6139 21.2211C12.6139 21.1817 12.6291 21.1453 12.6594 21.115C12.717 21.0574 12.8141 21.0574 12.8717 21.115C12.902 21.1453 12.9172 21.1817 12.9172 21.2211C12.9172 21.2605 12.902 21.2969 12.8717 21.3272C12.8414 21.3576 12.805 21.3697 12.7655 21.3697C12.7261 21.3697 12.6897 21.3545 12.6594 21.3272ZM13.084 20.9027C13.0536 20.8724 13.0415 20.836 13.0415 20.7966C13.0415 20.7571 13.0567 20.7208 13.084 20.6904C13.1416 20.6328 13.2386 20.6328 13.2962 20.6904C13.3265 20.7208 13.3387 20.7571 13.3387 20.7966C13.3387 20.836 13.3235 20.8724 13.2962 20.9027C13.2659 20.933 13.2295 20.9482 13.1901 20.9482C13.1507 20.9452 13.1112 20.93 13.084 20.9027ZM13.5055 20.4782C13.4751 20.4478 13.463 20.4114 13.463 20.372C13.463 20.3326 13.4782 20.2962 13.5055 20.2659C13.5631 20.2083 13.6601 20.2083 13.7177 20.2659C13.7481 20.2962 13.7632 20.3326 13.7632 20.372C13.7632 20.4114 13.7481 20.4478 13.7177 20.4782C13.6874 20.5085 13.651 20.5236 13.6116 20.5236C13.5752 20.5236 13.5358 20.5085 13.5055 20.4782ZM13.93 20.0567C13.8997 20.0263 13.8845 19.9899 13.8845 19.9505C13.8845 19.9111 13.8997 19.8747 13.93 19.8444C13.9876 19.7868 14.0816 19.7868 14.1423 19.8444C14.1726 19.8747 14.1847 19.9111 14.1847 19.9505C14.1847 19.9899 14.1696 20.0263 14.1423 20.0567C14.1119 20.087 14.0756 20.0991 14.0361 20.0991C13.9967 20.0991 13.9603 20.0839 13.93 20.0567ZM14.3545 19.6321C14.3242 19.6018 14.3121 19.5654 14.3121 19.526C14.3121 19.4866 14.3272 19.4502 14.3545 19.4198C14.4122 19.3622 14.5092 19.3622 14.5668 19.4198C14.5971 19.4502 14.6093 19.4866 14.6093 19.526C14.6093 19.5654 14.5941 19.6018 14.5668 19.6321C14.5365 19.6624 14.5001 19.6776 14.4607 19.6776C14.4213 19.6746 14.3818 19.6594 14.3545 19.6321ZM14.776 19.2076C14.7457 19.1772 14.7306 19.1409 14.7306 19.1014C14.7306 19.062 14.7457 19.0256 14.776 18.9953C14.8337 18.9377 14.9307 18.9377 14.9883 18.9953C15.0186 19.0256 15.0308 19.062 15.0308 19.1014C15.0308 19.1409 15.0156 19.1772 14.9883 19.2076C14.958 19.2379 14.9216 19.2531 14.8822 19.2531C14.8458 19.25 14.8064 19.2379 14.776 19.2076ZM15.2006 18.783C15.1703 18.7527 15.1581 18.7163 15.1581 18.6769C15.1581 18.6375 15.1733 18.6011 15.2006 18.5708C15.2582 18.5131 15.3552 18.5131 15.4129 18.5708C15.4432 18.6011 15.4583 18.6375 15.4583 18.6769C15.4583 18.7163 15.4432 18.7527 15.4129 18.783C15.3825 18.8134 15.3461 18.8285 15.3067 18.8285C15.2673 18.8285 15.2309 18.8134 15.2006 18.783ZM15.6251 18.3615C15.5948 18.3312 15.5827 18.2948 15.5827 18.2554C15.5827 18.216 15.5978 18.1796 15.6251 18.1492C15.6827 18.0916 15.7798 18.0916 15.8374 18.1492C15.8677 18.1796 15.8829 18.216 15.8829 18.2554C15.8829 18.2948 15.8677 18.3312 15.8374 18.3615C15.8071 18.3918 15.7707 18.407 15.7313 18.407C15.6918 18.404 15.6555 18.3888 15.6251 18.3615ZM16.0497 17.937C16.0193 17.9067 16.0042 17.8703 16.0042 17.8308C16.0042 17.7914 16.0193 17.755 16.0497 17.7247C16.1073 17.6671 16.2013 17.6671 16.2619 17.7247C16.2923 17.755 16.3074 17.7914 16.3074 17.8308C16.3074 17.8703 16.2923 17.9067 16.2619 17.937C16.2316 17.9673 16.1952 17.9794 16.1558 17.9794C16.1164 17.9794 16.077 17.9643 16.0497 17.937ZM16.4712 17.5124C16.4408 17.4821 16.4257 17.4457 16.4257 17.4063C16.4257 17.3669 16.4408 17.3305 16.4712 17.3002C16.5288 17.2425 16.6228 17.2425 16.6834 17.3002C16.7138 17.3305 16.7259 17.3669 16.7259 17.4063C16.7259 17.4457 16.7107 17.4821 16.6834 17.5124C16.6531 17.5428 16.6167 17.5549 16.5773 17.5549C16.5409 17.5579 16.5015 17.5428 16.4712 17.5124ZM16.8957 17.0879C16.8654 17.0576 16.8533 17.0212 16.8533 16.9818C16.8533 16.9423 16.8684 16.9059 16.8957 16.8756C16.9533 16.818 17.0504 16.818 17.108 16.8756C17.1383 16.9059 17.1504 16.9423 17.1504 16.9818C17.1504 17.0212 17.1353 17.0576 17.108 17.0879C17.0777 17.1182 17.0413 17.1334 17.0018 17.1334C16.9624 17.1334 16.926 17.1182 16.8957 17.0879ZM17.3203 16.6664C17.2899 16.6361 17.2778 16.5997 17.2778 16.5603C17.2778 16.5208 17.293 16.4844 17.3203 16.4541C17.3779 16.3965 17.4749 16.3965 17.5325 16.4541C17.5628 16.4844 17.575 16.5208 17.575 16.5603C17.575 16.5997 17.5598 16.6361 17.5325 16.6664C17.5022 16.6967 17.4658 16.7119 17.4264 16.7119C17.387 16.7088 17.3506 16.6937 17.3203 16.6664ZM17.7448 16.2418C17.7145 16.2115 17.7023 16.1751 17.7023 16.1357C17.7023 16.0963 17.7175 16.0599 17.7448 16.0296C17.8024 15.972 17.8994 15.972 17.9571 16.0296C17.9874 16.0599 18.0026 16.0963 18.0026 16.1357C18.0026 16.1751 17.9874 16.2115 17.9571 16.2418C17.9267 16.2722 17.8903 16.2843 17.8509 16.2843C17.8115 16.2843 17.7721 16.2722 17.7448 16.2418ZM18.1663 15.8173C18.136 15.787 18.1208 15.7506 18.1208 15.7112C18.1208 15.6717 18.136 15.6354 18.1663 15.605C18.2239 15.5474 18.3179 15.5474 18.3786 15.605C18.4089 15.6354 18.421 15.6717 18.421 15.7112C18.421 15.7506 18.4059 15.787 18.3786 15.8173C18.3482 15.8476 18.3119 15.8598 18.2724 15.8598C18.233 15.8628 18.1966 15.8476 18.1663 15.8173ZM18.5908 15.3958C18.5605 15.3655 18.5484 15.3291 18.5484 15.2897C18.5484 15.2502 18.5635 15.2138 18.5908 15.1835C18.6485 15.1259 18.7455 15.1259 18.8031 15.1835C18.8334 15.2138 18.8486 15.2502 18.8486 15.2897C18.8486 15.3291 18.8334 15.3655 18.8031 15.3958C18.7728 15.4261 18.7364 15.4382 18.697 15.4382C18.6576 15.4382 18.6212 15.4231 18.5908 15.3958ZM19.0154 14.9713C18.9851 14.9409 18.9699 14.9045 18.9699 14.8651C18.9699 14.8257 18.9851 14.7893 19.0154 14.759C19.073 14.7014 19.17 14.7014 19.2277 14.759C19.258 14.7893 19.2731 14.8257 19.2731 14.8651C19.2731 14.9045 19.258 14.9409 19.2277 14.9713C19.1973 15.0016 19.1609 15.0167 19.1215 15.0167C19.0821 15.0137 19.0427 14.9985 19.0154 14.9713ZM19.4369 14.5467C19.4066 14.5164 19.3914 14.48 19.3914 14.4406C19.3914 14.4012 19.4066 14.3648 19.4369 14.3344C19.4945 14.2768 19.5915 14.2768 19.6492 14.3344C19.6795 14.3648 19.6916 14.4012 19.6916 14.4406C19.6916 14.48 19.6764 14.5164 19.6492 14.5467C19.6188 14.577 19.5824 14.5922 19.543 14.5922C19.5066 14.5922 19.4672 14.577 19.4369 14.5467ZM19.8614 14.1222C19.8311 14.0918 19.819 14.0555 19.819 14.016C19.819 13.9766 19.8341 13.9402 19.8614 13.9099C19.919 13.8523 20.0161 13.8523 20.0737 13.9099C20.104 13.9402 20.1192 13.9766 20.1192 14.016C20.1192 14.0555 20.104 14.0918 20.0737 14.1222C20.0434 14.1525 20.007 14.1677 19.9676 14.1677C19.9281 14.1677 19.8918 14.1525 19.8614 14.1222ZM20.286 13.7007C20.2556 13.6703 20.2405 13.6339 20.2405 13.5945C20.2405 13.5551 20.2556 13.5187 20.286 13.4884C20.3436 13.4308 20.4376 13.4308 20.4982 13.4884C20.5286 13.5187 20.5437 13.5551 20.5437 13.5945C20.5437 13.6339 20.5286 13.6703 20.4982 13.7007C20.4679 13.731 20.4315 13.7431 20.3921 13.7431C20.3527 13.7431 20.3133 13.728 20.286 13.7007ZM20.7105 13.2761C20.6802 13.2458 20.665 13.2094 20.665 13.17C20.665 13.1306 20.6802 13.0942 20.7105 13.0638C20.7681 13.0062 20.8621 13.0062 20.9228 13.0638C20.9531 13.0942 20.9652 13.1306 20.9652 13.17C20.9652 13.2094 20.9501 13.2458 20.9228 13.2761C20.8925 13.3064 20.8561 13.3186 20.8166 13.3186C20.7772 13.3186 20.7378 13.3064 20.7105 13.2761ZM21.132 12.8516C21.1017 12.8213 21.0896 12.7849 21.0896 12.7454C21.0896 12.706 21.1047 12.6696 21.132 12.6393C21.1896 12.5817 21.2867 12.5817 21.3443 12.6393C21.3746 12.6696 21.3898 12.706 21.3898 12.7454C21.3898 12.7849 21.3746 12.8213 21.3443 12.8516C21.314 12.8819 21.2776 12.8971 21.2381 12.8971C21.2018 12.8971 21.1623 12.8819 21.132 12.8516ZM21.5566 12.427C21.5262 12.3967 21.5111 12.3603 21.5111 12.3209C21.5111 12.2815 21.5262 12.2451 21.5566 12.2148C21.6142 12.1572 21.7112 12.1572 21.7688 12.2148C21.7991 12.2451 21.8113 12.2815 21.8113 12.3209C21.8113 12.3603 21.7961 12.3967 21.7688 12.427C21.7385 12.4574 21.7021 12.4695 21.6627 12.4695C21.6233 12.4725 21.5869 12.4574 21.5566 12.427ZM21.9811 12.0055C21.9508 11.9752 21.9386 11.9388 21.9386 11.8994C21.9386 11.86 21.9538 11.8236 21.9811 11.7933C22.0387 11.7356 22.1357 11.7356 22.1934 11.7933C22.2237 11.8236 22.2358 11.86 22.2358 11.8994C22.2358 11.9388 22.2207 11.9752 22.1934 12.0055C22.163 12.0359 22.1267 12.051 22.0872 12.051C22.0478 12.048 22.0084 12.0328 21.9811 12.0055ZM22.4026 11.581C22.3723 11.5507 22.3601 11.5143 22.3601 11.4749C22.3601 11.4354 22.3753 11.399 22.4026 11.3687C22.4602 11.3111 22.5573 11.3111 22.6149 11.3687C22.6452 11.399 22.6604 11.4354 22.6604 11.4749C22.6604 11.5143 22.6452 11.5507 22.6149 11.581C22.5845 11.6113 22.5482 11.6234 22.5087 11.6234C22.4723 11.6265 22.4329 11.6113 22.4026 11.581ZM22.8271 11.1564C22.7968 11.1261 22.7817 11.0897 22.7817 11.0503C22.7817 11.0109 22.7968 10.9745 22.8271 10.9442C22.8848 10.8866 22.9788 10.8866 23.0394 10.9442C23.0697 10.9745 23.0849 11.0109 23.0849 11.0503C23.0849 11.0897 23.0697 11.1261 23.0394 11.1564C23.0091 11.1868 22.9727 11.2019 22.9333 11.2019C22.8939 11.2019 22.8575 11.1868 22.8271 11.1564ZM23.2517 10.7349C23.2214 10.7046 23.2062 10.6682 23.2062 10.6288C23.2062 10.5894 23.2214 10.553 23.2517 10.5227C23.3093 10.465 23.4063 10.465 23.464 10.5227C23.4943 10.553 23.5094 10.5894 23.5094 10.6288C23.5094 10.6682 23.4943 10.7046 23.464 10.7349C23.4336 10.7653 23.3972 10.7774 23.3578 10.7774C23.3184 10.7774 23.279 10.7622 23.2517 10.7349ZM23.6762 10.3104C23.6459 10.2801 23.6307 10.2437 23.6307 10.2043C23.6307 10.1648 23.6459 10.1284 23.6762 10.0981C23.7338 10.0405 23.8309 10.0405 23.8885 10.0981C23.9188 10.1284 23.9309 10.1648 23.9309 10.2043C23.9309 10.2437 23.9158 10.2801 23.8885 10.3104C23.8582 10.3407 23.8218 10.3528 23.7824 10.3528C23.7429 10.3528 23.7035 10.3407 23.6762 10.3104ZM24.0977 9.88585C24.0401 9.82824 24.0401 9.7312 24.0977 9.67358C24.1553 9.61597 24.2524 9.61597 24.31 9.67358C24.3676 9.7312 24.3676 9.82521 24.31 9.88585C24.2797 9.91618 24.2433 9.92831 24.2039 9.92831C24.1675 9.93134 24.1281 9.91618 24.0977 9.88585Z" fill="white"/>
<path d="M24.2124 25.5817C24.9845 25.5817 25.6103 24.9558 25.6103 24.1837C25.6103 23.4117 24.9845 22.7858 24.2124 22.7858C23.4403 22.7858 22.8145 23.4117 22.8145 24.1837C22.8145 24.9558 23.4403 25.5817 24.2124 25.5817Z" fill="white"/>
<path d="M9.80836 25.5847C10.5804 25.5847 11.2063 24.9588 11.2063 24.1868C11.2063 23.4147 10.5804 22.7888 9.80836 22.7888C9.03629 22.7888 8.4104 23.4147 8.4104 24.1868C8.4104 24.9588 9.03629 25.5847 9.80836 25.5847Z" fill="white"/>
<path d="M24.2249 11.1655C24.9969 11.1655 25.6228 10.5396 25.6228 9.76758C25.6228 8.99551 24.9969 8.36963 24.2249 8.36963C23.4528 8.36963 22.8269 8.99551 22.8269 9.76758C22.8269 10.5396 23.4528 11.1655 24.2249 11.1655Z" fill="white"/>
<path d="M9.77198 11.1412C10.544 11.1412 11.1699 10.5154 11.1699 9.74329C11.1699 8.97122 10.544 8.34534 9.77198 8.34534C8.99991 8.34534 8.37402 8.97122 8.37402 9.74329C8.37402 10.5154 8.99991 11.1412 9.77198 11.1412Z" fill="white"/>
</svg>
