<svg width="14" height="14" viewBox="0 0 14 14" fill="none" xmlns="http://www.w3.org/2000/svg">
<path d="M6.97676 12.814H1.74418C1.42324 12.814 1.16279 12.5536 1.16279 12.2327V1.76752C1.16279 1.44659 1.42327 1.18614 1.74418 1.18614H6.97676C7.29827 1.18614 7.55814 0.926261 7.55814 0.604753C7.55814 0.283245 7.29827 0.0233154 6.97676 0.0233154H1.74418C0.782551 0.0233154 0 0.805894 0 1.76752V12.2326C0 13.1943 0.782551 13.9768 1.74418 13.9768H6.97676C7.29827 13.9768 7.55814 13.7169 7.55814 13.3954C7.55814 13.0739 7.29827 12.814 6.97676 12.814Z" fill="black"/>
<path d="M13.8267 6.58606L10.2918 3.09768C10.0639 2.87209 9.6953 2.87502 9.46972 3.1035C9.24413 3.33199 9.24646 3.70001 9.47554 3.92559L12.0017 6.4186H5.23251C4.911 6.4186 4.65112 6.67848 4.65112 6.99999C4.65112 7.3215 4.911 7.5814 5.23251 7.5814H12.0017L9.47554 10.0744C9.24649 10.3 9.24473 10.668 9.46972 10.8965C9.58366 11.0116 9.73367 11.0697 9.88368 11.0697C10.0314 11.0697 10.179 11.0139 10.2918 10.9023L13.8267 7.41392C13.9372 7.30462 13.9999 7.15576 13.9999 6.99996C13.9999 6.84421 13.9377 6.69595 13.8267 6.58606Z" fill="black"/>
</svg>
