<svg width="36" height="36" viewBox="0 0 36 36" fill="none" xmlns="http://www.w3.org/2000/svg">
<path d="M26.6726 26.6726H20.9204V28.0001H28.0001V20.9204H26.6726V26.6726Z" fill="#8C919C"/>
<path d="M9.32743 9.32743H15.0796V8H8V15.0796H9.32743V9.32743Z" fill="#8C919C"/>
<path d="M20.9204 8V9.32743H26.6726V15.0796H28.0001V8H20.9204Z" fill="#8C919C"/>
<path d="M9.32743 20.9204H8V28.0001H15.0796V26.6726H9.32743V20.9204Z" fill="#8C919C"/>
<path d="M10.6992 17.3363H17.3364V10.6991H10.6992V17.3363ZM13.3541 13.354H14.6815V14.6814H13.3541V13.354Z" fill="#8C919C"/>
<path d="M10.6992 25.2787H17.3364V18.6858H10.6992V25.2787ZM13.3541 21.3185H14.6815V22.646H13.3541V21.3185Z" fill="#8C919C"/>
<path d="M25.301 18.6637H18.6638V25.3009H25.301V18.6637ZM22.6461 22.646H21.3187V21.3186H22.6461V22.646Z" fill="#8C919C"/>
<path d="M25.301 10.6991H18.6638V17.3363H25.301V10.6991ZM22.6461 14.6814H21.3187V13.354H22.6461V14.6814Z" fill="#8C919C"/>
</svg>
