<svg width="291" height="36" viewBox="0 0 291 36" fill="none" xmlns="http://www.w3.org/2000/svg">
<path opacity="0.7" d="M201.001 24H202.996L205.751 14.1946H205.853L208.608 24H210.596L214.233 10.9091H212.149L209.605 21.0533H209.484L206.831 10.9091H204.773L202.12 21.0469H201.999L199.448 10.9091H197.371L201.001 24ZM218.311 24.2173C219.935 24.2173 220.849 23.3928 221.213 22.6577H221.29V24H223.156V17.4801C223.156 14.6229 220.906 14.054 219.346 14.054C217.569 14.054 215.933 14.7699 215.294 16.5597L217.09 16.9688C217.371 16.272 218.087 15.6009 219.372 15.6009C220.606 15.6009 221.239 16.2464 221.239 17.3587V17.4034C221.239 18.1001 220.523 18.0874 218.758 18.2919C216.898 18.5092 214.993 18.995 214.993 21.2259C214.993 23.1562 216.444 24.2173 218.311 24.2173ZM218.726 22.6832C217.646 22.6832 216.866 22.1974 216.866 21.2514C216.866 20.2287 217.774 19.8643 218.88 19.7173C219.5 19.6342 220.97 19.468 221.245 19.1932V20.4588C221.245 21.6222 220.318 22.6832 218.726 22.6832ZM228.153 10.9091H226.242V24H228.153V10.9091ZM233.175 10.9091H231.264V24H233.175V10.9091ZM240.518 24.1982C242.659 24.1982 244.174 23.1435 244.609 21.5455L242.8 21.2195C242.455 22.1463 241.624 22.6193 240.537 22.6193C238.901 22.6193 237.802 21.5582 237.75 19.6662H244.73V18.9886C244.73 15.4411 242.608 14.054 240.384 14.054C237.648 14.054 235.846 16.1378 235.846 19.1548C235.846 22.2038 237.623 24.1982 240.518 24.1982ZM237.757 18.2344C237.833 16.8409 238.843 15.6328 240.397 15.6328C241.88 15.6328 242.851 16.7322 242.858 18.2344H237.757ZM251.974 14.1818H249.961V11.8295H248.049V14.1818H246.611V15.7159H248.049V21.5135C248.043 23.2969 249.405 24.1598 250.913 24.1278C251.52 24.1214 251.929 24.0064 252.153 23.9233L251.808 22.3445C251.68 22.37 251.444 22.4276 251.137 22.4276C250.517 22.4276 249.961 22.223 249.961 21.1172V15.7159H251.974V14.1818Z" fill="#030C21"/>
<path opacity="0.7" d="M189.568 10.4602H188.426V24.8125H189.568V10.4602Z" fill="#030C21"/>
<path fill-rule="evenodd" clip-rule="evenodd" d="M17.0741 24.0995L9.05483 30.295L14.7993 34.7209C15.2821 35.0929 15.9748 35.0929 16.4576 34.7209L30.5379 23.8929L23.9299 18.816L17.0741 24.0995ZM14.6153 24.4328L12.0549 22.4597L12.0513 22.4668L3.05055e-05 13.32C2.09686e-05 13.3221 1.52464e-05 13.3243 1.52462e-05 13.3264L1.51432e-05 14.5044L-1.72823e-05 14.511L-1.79959e-05 22.6735C-1.8032e-05 23.0868 0.188909 23.4587 0.503787 23.7067L8.01316 29.4924L14.6153 24.4328ZM0.630257 12.1958L7.22504 17.2625L14.7993 11.4253C14.8664 11.3736 14.9375 11.3291 15.0116 11.2918L22.2572 5.73897L16.4577 1.27899C15.9749 0.907027 15.2821 0.907027 14.7993 1.27899L0.630257 12.1958ZM23.312 6.55014L16.7035 11.6147L24.9888 17.9999L24.9832 18.0043L31.2506 22.8194C31.2548 22.7778 31.2569 22.736 31.2569 22.6942L31.2569 21.4958L31.257 21.4889L31.257 13.3057C31.257 12.9131 31.068 12.5205 30.7532 12.2725L23.312 6.55014Z" fill="#030C21"/>
<path d="M78.4401 24.3257C78.0128 24.753 77.4946 24.9711 76.8855 24.9711C76.2764 24.9711 75.7674 24.753 75.331 24.3257C74.9037 23.8984 74.6855 23.3802 74.6855 22.7712C74.6855 22.1621 74.9037 21.653 75.331 21.2166C75.7583 20.7893 76.2764 20.5712 76.8855 20.5712C77.4946 20.5712 78.0037 20.7893 78.4401 21.2166C78.8673 21.6439 79.0855 22.1621 79.0855 22.7712C79.0855 23.3802 78.8764 23.8984 78.4401 24.3257Z" fill="#030C21"/>
<path d="M89.3364 11.2277C90.7383 11.2277 91.8796 11.7162 92.7872 12.6933C93.7038 13.6703 94.1711 15.0231 94.1711 16.7516V24.6711C94.1711 24.8308 94.0543 24.9529 93.9015 24.9529H91.1427C90.9899 24.9529 90.8731 24.8308 90.8731 24.6711V17.1932C90.8731 16.3007 90.6395 15.6243 90.1812 15.164C89.7229 14.6849 89.1118 14.4406 88.339 14.4406C87.4853 14.4406 85.5262 14.4406 85.5262 14.4406C85.5262 14.4406 85.5262 16.6577 85.5262 17.7568V24.6899C85.5262 24.8496 85.4094 24.9717 85.2567 24.9717H82.4979C82.3451 24.9717 82.2283 24.8496 82.2283 24.6899V11.425C82.2283 11.2653 82.3451 11.1432 82.4979 11.1432H85.5262C86.9641 11.1432 87.6021 11.2277 89.3364 11.2277Z" fill="#030C21"/>
<path d="M100.041 19.4569C100.502 21.0957 101.762 21.9151 103.813 21.9151C105.036 21.9151 105.986 21.5376 106.663 20.7826C106.748 20.6814 106.898 20.6537 107.011 20.7182L109.316 22.0163C109.467 22.0992 109.504 22.3017 109.401 22.4306C108.084 24.1247 106.202 24.9717 103.756 24.9717C101.546 24.9717 99.7678 24.318 98.4319 23.0107C97.0961 21.7033 96.4282 20.0553 96.4282 18.0574C96.4282 16.0872 97.0867 14.4392 98.4037 13.1318C99.7207 11.8061 101.414 11.1432 103.484 11.1432C105.45 11.1432 107.058 11.8061 108.328 13.1318C109.617 14.4576 110.257 16.0964 110.257 18.0574C110.257 18.4257 110.229 18.8032 110.163 19.2083C110.144 19.3464 110.022 19.4477 109.88 19.4477H100.041V19.4569ZM99.9935 16.8329H106.814C106.616 15.9399 106.212 15.277 105.581 14.8443C104.979 14.4116 104.283 14.1906 103.493 14.1906C102.562 14.1906 101.8 14.43 101.188 14.8995C100.586 15.3507 100.182 15.9951 99.9935 16.8329Z" fill="#030C21"/>
<path d="M118.526 14.7704H115.871V20.3527C115.871 20.8147 115.981 21.1542 116.209 21.371C116.437 21.5879 116.765 21.7105 117.194 21.7482C117.559 21.7671 117.997 21.7576 118.508 21.7388C118.663 21.7294 118.8 21.8614 118.8 22.0217V24.6053C118.8 24.7468 118.69 24.8788 118.544 24.8882C116.373 25.1145 114.831 24.8788 113.919 24.1904C112.988 23.4738 112.514 22.2008 112.514 20.3527V14.7704V11.4419V8.283C112.514 8.1227 112.633 8.00012 112.788 8.00012H115.588C115.744 8.00012 115.862 8.1227 115.862 8.283V11.4419H118.517C118.672 11.4419 118.791 11.5644 118.791 11.7247V14.4876C118.8 14.6384 118.672 14.7704 118.526 14.7704Z" fill="#030C21"/>
<path d="M136.616 11.1432H139.633C139.818 11.1432 139.957 11.3377 139.901 11.5225L135.895 24.7675C135.858 24.8842 135.747 24.9717 135.626 24.9717H132.795C132.674 24.9717 132.563 24.8842 132.526 24.7675L130.167 16.589L127.807 24.7675C127.77 24.8939 127.668 24.9717 127.539 24.9717H124.707C124.587 24.9717 124.476 24.8939 124.439 24.7675L120.441 11.5225C120.386 11.3377 120.515 11.1432 120.709 11.1432H123.726C123.846 11.1432 123.957 11.2307 123.994 11.3571L126.178 19.6328L128.51 11.3474C128.547 11.221 128.649 11.1432 128.779 11.1432H131.573C131.693 11.1432 131.804 11.2307 131.841 11.3474L134.183 19.662L136.366 11.3571C136.385 11.2307 136.496 11.1432 136.616 11.1432Z" fill="#030C21"/>
<path d="M152.73 22.983C151.389 24.3088 149.753 24.9717 147.814 24.9717C145.885 24.9717 144.24 24.3088 142.899 22.983C141.575 21.6389 140.914 20.0001 140.914 18.0574C140.914 16.124 141.575 14.4852 142.899 13.1595C144.24 11.8153 145.876 11.1432 147.814 11.1432C149.753 11.1432 151.389 11.8153 152.73 13.1595C154.072 14.4852 154.742 16.1148 154.742 18.0574C154.742 20.0001 154.072 21.6389 152.73 22.983ZM145.278 20.6537C145.958 21.335 146.804 21.6757 147.814 21.6757C148.825 21.6757 149.67 21.335 150.35 20.6537C151.03 19.9724 151.37 19.107 151.37 18.0574C151.37 17.0079 151.03 16.1424 150.35 15.4611C149.67 14.7798 148.825 14.4392 147.814 14.4392C146.804 14.4392 145.958 14.7798 145.278 15.4611C144.617 16.1424 144.286 17.0079 144.286 18.0574C144.286 19.107 144.617 19.9724 145.278 20.6537Z" fill="#030C21"/>
<path d="M163.914 11.4269V14.3307C163.914 14.4915 163.801 14.6145 163.654 14.6145H161.318C160.686 14.6145 160.175 15.1726 160.175 15.863V18.5398V24.6879C160.175 24.8487 160.063 24.9717 159.916 24.9717H157.259C157.112 24.9717 157 24.8487 157 24.6879V14.378C157 12.5904 158.324 11.1432 159.959 11.1432H163.654C163.793 11.1432 163.914 11.2756 163.914 11.4269Z" fill="#030C21"/>
<path d="M170.199 18.8398V24.6867C170.199 24.8481 170.079 24.9715 169.922 24.9715H167.077C166.92 24.9715 166.799 24.8481 166.799 24.6867V8.28488C166.799 8.12352 166.92 8.00012 167.077 8.00012H169.922C170.079 8.00012 170.199 8.12352 170.199 8.28488V18.8398Z" fill="#030C21"/>
<path d="M174.913 17.692C174.757 17.9064 174.757 18.2085 174.913 18.4229L179.312 24.4942C179.451 24.6891 179.33 24.9717 179.095 24.9717H175.694C175.529 24.9717 175.373 24.884 175.269 24.7476L170.688 18.4229C170.532 18.2085 170.532 17.9064 170.688 17.692L175.269 11.3673C175.373 11.2212 175.529 11.1432 175.694 11.1432H179.095C179.321 11.1432 179.451 11.4258 179.312 11.6207L174.913 17.692Z" fill="#030C21"/>
<path d="M72.1373 16.6915C72.0712 14.9933 71.6558 13.6643 70.6834 12.7044C69.7299 11.7446 68.5215 11.3662 67.0581 11.2647C66.3784 11.2185 64.9434 11.1539 63.4895 11.1447C61.6863 11.1354 59.8831 11.1724 59.8831 11.1724C59.7226 11.1724 59.5999 11.2923 59.5999 11.4492V13.5535V22.626V24.7303V30.0003H63.0646V27.4345V21.7769C63.0646 21.7769 63.0646 21.26 63.0646 20.6048C63.0646 19.9126 63.0646 19.0727 63.0646 18.5189V17.6606V14.4026C63.0646 14.4026 65.1228 14.4026 66.0196 14.4026C66.8221 14.4026 67.4735 14.6426 67.955 15.1133C68.4365 15.5655 68.682 16.23 68.682 17.1068V17.2453V19.0727C68.682 19.9495 68.4365 20.614 67.955 21.0662C67.4735 21.5369 66.8315 21.7769 66.0196 21.7769C65.4154 21.7769 63.6122 21.7769 63.6122 21.7769V24.9241C64.7262 24.9333 65.4815 24.9887 67.0676 24.9241C68.5403 24.8687 69.7488 24.4442 70.6929 23.4843C71.5708 22.6075 72.024 21.4169 72.109 19.9402C72.1184 19.9126 72.1467 19.8941 72.1467 19.8572C72.1373 19.8572 72.2128 18.5097 72.1373 16.6915Z" fill="#030C21"/>
<path d="M45.78 17.6906C45.9458 17.9042 45.9458 18.2107 45.78 18.4243L41.0623 24.4981C40.9149 24.6931 41.0439 24.9717 41.2927 24.9717H44.9415C45.1166 24.9717 45.2916 24.8881 45.4022 24.7488L50.3041 18.4243C50.47 18.2107 50.47 17.9042 50.3041 17.6906L45.393 11.3661C45.2824 11.2268 45.1166 11.1432 44.9323 11.1432H41.2927C41.0531 11.1432 40.9149 11.4311 41.0623 11.6168L45.78 17.6906Z" fill="#030C21"/>
<path d="M51.9343 17.6906C51.7685 17.9042 51.7685 18.2107 51.9343 18.4243L56.652 24.4981C56.7994 24.6931 56.6704 24.9717 56.4216 24.9717H52.7728C52.5977 24.9717 52.4227 24.8881 52.3121 24.7488L47.4102 18.4243C47.2443 18.2107 47.2443 17.9042 47.4102 17.6906L52.3213 11.3661C52.4319 11.2268 52.5977 11.1432 52.782 11.1432H56.4216C56.6612 11.1432 56.7994 11.4311 56.652 11.6168L51.9343 17.6906Z" fill="#030C21"/>
</svg>
