<svg width="34" height="34" viewBox="0 0 34 34" fill="none" xmlns="http://www.w3.org/2000/svg">
<circle cx="17" cy="17" r="17" fill="#262531"/>
<path fill-rule="evenodd" clip-rule="evenodd" d="M18.0028 20.608L12.4417 24.9044L16.1341 27.7492C16.4444 27.9884 16.8898 27.9884 17.2002 27.7492L26.2516 20.7885L22.0035 17.5248L18.0028 20.608ZM16.0163 21.1358L14.3699 19.867L14.3674 19.8718L6.62028 13.9918C6.62027 13.9931 6.62027 13.9944 6.62027 13.9957L6.62027 14.7458L6.62012 14.757L6.62012 20.0044C6.62012 20.2701 6.74157 20.5092 6.944 20.6686L11.772 24.3884L16.0163 21.1358ZM7.02527 13.2689L11.2648 16.5262L16.1342 12.7735C16.1775 12.7401 16.2235 12.7114 16.2714 12.6873L20.9288 9.11809L17.2003 6.25083C16.8899 6.01171 16.4446 6.01171 16.1342 6.25083L7.02527 13.2689ZM21.6069 9.63956L17.3584 12.8954L22.6845 17L22.6807 17.0029L26.71 20.0986C26.7127 20.0717 26.7141 20.0447 26.7141 20.0177L26.7141 19.2549L26.7142 19.243L26.7142 13.9824C26.7142 13.73 26.5928 13.4776 26.3904 13.3182L21.6069 9.63956Z" fill="white"/>
</svg>
