<svg width="24" height="24" viewBox="0 0 24 24" fill="none" xmlns="http://www.w3.org/2000/svg">
<path d="M11.3413 11.5779L5.27427 8.2807C5.00441 8.13411 4.68573 8.14016 4.42165 8.29714C4.15758 8.45409 4 8.73119 4 9.0384V16.6872C4 16.9966 4.16712 17.2839 4.43617 17.4369L10.5033 20.886C10.637 20.962 10.7833 21 10.9295 21C11.0786 21 11.2277 20.9605 11.3632 20.8817C11.6316 20.7255 11.7919 20.4468 11.7919 20.1363V12.3356C11.7919 12.0193 11.6192 11.729 11.3413 11.5779V11.5779Z" fill="#8C919C"/>
<path d="M19.8524 6.29114C19.852 5.96819 19.6736 5.67527 19.3869 5.52668L12.771 2.09678C12.5206 1.96686 12.222 1.96783 11.9724 2.09919L5.45388 5.52909C5.17006 5.6785 4.99351 5.97053 4.9931 6.29129C4.99273 6.61197 5.16857 6.90441 5.45199 7.05445L11.9706 10.5058C12.0968 10.5725 12.2354 10.606 12.374 10.606C12.5109 10.606 12.6479 10.5734 12.7729 10.5081L19.3889 7.0569C19.6752 6.90753 19.8528 6.61409 19.8524 6.29114V6.29114Z" fill="#8C919C"/>
<path d="M20.5316 8.29709C20.2677 8.1401 19.9488 8.1339 19.6791 8.2806L13.6119 11.5778C13.334 11.7289 13.1614 12.0192 13.1614 12.3355V20.1362C13.1614 20.4467 13.3216 20.7254 13.59 20.8816C13.7256 20.9605 13.8746 20.9999 14.0237 20.9999C14.1699 20.9999 14.3163 20.9619 14.45 20.8859L20.5171 17.4368C20.7862 17.2838 20.9533 16.9965 20.9533 16.6871V9.03834C20.9533 8.73114 20.7957 8.45403 20.5316 8.29709V8.29709Z" fill="#8C919C"/>
</svg>
