<svg width="24" height="24" viewBox="0 0 24 24" fill="none" xmlns="http://www.w3.org/2000/svg">
<g clip-path="url(#clip0)">
<path d="M18.9507 5.2991C17.0843 4.17926 14.6158 3.5625 12 3.5625C9.38422 3.5625 6.91574 4.17926 5.04934 5.2991C3.08293 6.47891 2 8.0818 2 9.8125V14.1875C2 15.9182 3.08293 17.5211 5.04934 18.7009C6.91574 19.8207 9.38422 20.4375 12 20.4375C14.6158 20.4375 17.0843 19.8207 18.9507 18.7009C20.9171 17.5211 22 15.9182 22 14.1875V9.8125C22 8.0818 20.9171 6.47891 18.9507 5.2991ZM5.69242 6.37094C7.36742 5.36598 9.60746 4.8125 12 4.8125C14.3925 4.8125 16.6326 5.36598 18.3076 6.37094C19.8826 7.31598 20.75 8.5382 20.75 9.8125C20.75 11.0868 19.8826 12.309 18.3076 13.2541C16.6326 14.259 14.3925 14.8125 12 14.8125C9.60746 14.8125 7.36742 14.259 5.69242 13.2541C4.11742 12.309 3.25 11.0868 3.25 9.8125C3.25 8.5382 4.11742 7.31598 5.69242 6.37094Z" fill="#8C919C"/>
</g>
<defs>
<clipPath id="clip0">
<rect width="20" height="20" fill="white" transform="translate(2 2)"/>
</clipPath>
</defs>
</svg>
